<?xml version="1.0" encoding="utf-8"?>
<!DOCTYPE svg PUBLIC "-//W3C//DTD SVG 1.0//EN" "http://www.w3.org/TR/2001/REC-SVG-20010904/DTD/svg10.dtd">
<svg version="1.0" xmlns="http://www.w3.org/2000/svg" width="1920px" height="1920px" viewBox="0 0 1920 1920" preserveAspectRatio="xMidYMid meet">
 <g fill="#000000">
  <path d="M0.7 1919.3 c-0.4 -0.3 -0.7 -241.1 -0.7 -535 l0 -534.3 3.3 -2 c3.2 -2 6.4 -2 470.9 -2 l467.7 0 0.4 -55.7 c0.3 -53.3 0.4 -56.2 2.6 -65.8 5.9 -26.7 17.1 -50.6 33.5 -71.8 3.4 -4.3 7.1 -9.2 8.4 -10.9 2.7 -3.8 9.8 -10.5 18.2 -17.3 20.2 -16.3 43.5 -29 64.5 -34.9 22.6 -6.4 5.3 -5.9 236 -6.6 189.5 -0.6 210.8 -0.8 218 -2.3 41.9 -8.6 74.1 -30 97 -64.7 11.5 -17.5 18 -33.7 21.5 -53.7 7.7 -44.7 -6.8 -87.7 -41.9 -123.7 -8.5 -8.8 -11.6 -11.6 -13 -11.6 -0.5 0 -1.1 -0.4 -1.3 -0.8 -0.6 -1.5 -14.3 -10 -23.3 -14.5 -10.5 -5.2 -24.4 -10 -35.9 -12.4 -7.5 -1.6 -40.2 -1.8 -448.1 -2.3 -449.4 -0.6 -451.5 -0.6 -456 -4 -0.5 -0.4 -3 -1.1 -5.5 -1.5 -14.2 -2.2 -40.4 -13.1 -55.5 -22.9 -4.7 -3.1 -8.8 -5.6 -9.1 -5.6 -0.3 0 -3.5 -2.4 -7.2 -5.4 -8.8 -7 -23.5 -22.9 -31.7 -34.1 -3.7 -5 -7.2 -9.7 -7.9 -10.6 -2.9 -3.5 -14.8 -28.9 -17.5 -37.4 -3.5 -11 -6.8 -26.8 -8.1 -39.5 -0.5 -5.2 -1 -36 -1 -68.4 0 -57.8 0 -59.1 2.1 -63.3 l2.1 -4.3 13.9 0 13.9 0 2.7 4.2 2.8 4.2 0.6 63.5 c0.6 69.6 0.5 67.9 7 87.5 6.2 18.7 20.3 42.1 32.4 54.2 21.7 21.4 45.7 35.2 73.5 42.2 l10.5 2.7 441.5 0.5 c440.9 0.6 441.5 0.6 452.5 2.7 32.8 6.1 57.7 17.7 82.3 38 7.9 6.6 18.8 16.9 23.2 21.9 5.3 6.1 19.3 28 23.5 36.9 4.7 9.8 12.5 31.5 12.5 35.1 0 1.1 0.4 2.4 0.9 3 0.5 0.5 1.7 5.4 2.7 10.9 1.5 7.9 1.9 14.8 1.9 32.5 0 27 -1.1 33.9 -9 57.5 -10.1 30.3 -21 48.1 -42.9 70.1 -15.5 15.4 -25 22.5 -44.7 32.9 -16.5 8.9 -26.2 12.2 -49.9 17.3 -6.7 1.4 -30.2 1.6 -217.5 2.2 -206.9 0.6 -210.1 0.7 -220 2.7 -31.6 6.5 -55.8 20.1 -78.8 44.3 -21.8 23 -34.5 49.5 -38.7 81.3 -0.5 4.4 -1 27.6 -1 52.8 l0 44.9 467.3 0 c464 0 467.2 0 470.5 2 l3.2 2 -0.2 534.7 -0.3 534.8 -959.1 0.3 c-527.5 0.1 -959.4 -0.1 -959.7 -0.5z m1886.3 -534.8 l0 -502.5 -926.7 0.3 -926.8 0.2 -0.3 501 c-0.1 275.6 0 501.6 0.3 502.3 0.3 0.9 186.7 1.2 927 1.2 l926.5 0 0 -502.5z"/>
  <path d="M105.1 1848.6 c-1.9 -0.7 -4.9 -2.9 -6.5 -5 l-3.1 -3.8 -0.3 -77.6 c-0.2 -42.8 0 -79.6 0.3 -81.9 0.4 -2.4 1.7 -5.6 3.2 -7.3 5.2 -6.2 1.8 -6 90.2 -6 76.6 0 80.8 0.1 84.1 1.9 1.9 1 4.5 3.3 5.8 5.1 l2.2 3.3 0 81.1 c0 78.7 -0.1 81.2 -2 84.3 -1 1.8 -3.4 4 -5.2 5 -3.1 1.7 -8.4 1.8 -84.3 2 -62.9 0.1 -81.8 -0.1 -84.4 -1.1z m139.9 -89.6 l0 -55 -56.5 0 -56.5 0 0 55 0 55 56.5 0 56.5 0 0 -55z"/>
  <path d="M326.6 1849 c-1.6 -0.5 -4 -1.9 -5.3 -3.2 -5.5 -5.1 -5.3 -1.4 -5.3 -87.6 l0 -79.9 2.3 -3.3 c1.2 -1.8 3.5 -4.3 5 -5.4 l2.8 -2.1 412.6 -0.3 412.6 -0.2 4.4 2.5 c8.3 5 7.8 -1.2 7.8 89 0 89.6 0.5 83.9 -7.2 88.7 l-3.8 2.3 -411.5 0.2 c-229.2 0.1 -412.8 -0.3 -414.4 -0.7z m800.2 -90.2 l0.2 -54.8 -386.9 0 -386.9 0 -0.6 2.3 c-0.8 3 -0.8 106.2 0.1 107 0.3 0.4 174.6 0.6 387.2 0.5 l386.6 -0.3 0.3 -54.7z"/>
  <path d="M1207.5 1848.8 c-4.3 -1.5 -8.4 -5.7 -9.6 -9.8 -0.6 -2.3 -0.9 -30.6 -0.7 -82.7 0.3 -78.2 0.3 -79.2 2.4 -81.9 1.1 -1.5 3.3 -3.7 4.8 -4.8 2.7 -2.1 3.5 -2.1 85.9 -2.1 l83.2 0 3.3 2.3 c7.1 5.1 6.7 -0.3 6.7 88.7 0 78.7 0 80.1 -2 83.5 -1.2 1.9 -3.6 4.3 -5.5 5.5 -3.4 2 -5 2 -84.5 2.2 -54.8 0.1 -82 -0.2 -84 -0.9z m139.5 -89.8 l0 -55 -57 0 -57 0 0 54.3 c0 29.9 0.3 54.7 0.7 55 0.3 0.4 26 0.7 57 0.7 l56.3 0 0 -55z"/>
  <path d="M1429.2 1849 c-1.8 -0.4 -4.5 -1.8 -5.9 -3.1 -5.4 -5.1 -5.3 -2.6 -5.3 -87.3 0 -53.2 0.3 -79.4 1.1 -81.3 0.6 -1.5 2 -3.9 3.2 -5.1 5 -5.3 2.8 -5.2 89.6 -5.2 l80.6 0 3.9 2.3 c2.2 1.2 4.9 3.7 5.9 5.5 1.9 3.2 1.9 6 1.8 84 -0.2 90 0.2 84.3 -7.1 88.7 -3.4 2 -5 2 -84 2.2 -44.3 0 -82 -0.2 -83.8 -0.7z m138.8 -90 l0 -55 -57 0 -57 0 0 54.3 c0 29.9 0.3 54.7 0.7 55 0.3 0.4 26 0.7 57 0.7 l56.3 0 0 -55z"/>
  <path d="M1648.7 1848.6 c-4.6 -1.7 -6.4 -3.2 -8.3 -6.7 -1.2 -2.4 -1.4 -15.4 -1.4 -83.7 l0 -80.9 2.3 -3.4 c4.5 -6.8 -0.4 -6.4 90.9 -6.4 81.9 0 82.7 0 85.4 2.1 1.5 1.1 3.7 3.3 4.8 4.8 2.1 2.7 2.1 3.7 2.4 82.7 0.3 88.6 0.6 84.2 -6.4 89.5 l-3.7 2.9 -81.1 0.2 c-66.1 0.2 -81.8 0 -84.9 -1.1z m139.7 -38.3 c0.3 -2.1 0.6 -26.9 0.6 -55 l0 -51.3 -57 0 -57 0 0 55 0 55 56.4 0 56.3 0 0.7 -3.7z"/>
  <path d="M104.2 1645.3 c-1.9 -0.9 -4.4 -3.2 -5.8 -5.2 l-2.4 -3.6 0 -81 c0 -79.5 0 -81.1 2 -84.3 1.2 -1.9 3.8 -4.1 6.3 -5.2 4.1 -1.9 9 -2 194.2 -2 l190.1 0 4.4 2.3 c2.4 1.2 5.3 3.5 6.4 5 2.1 2.8 2.1 3.9 2.4 82.9 0.2 78.6 0.2 80.2 -1.8 84.3 -1.3 2.6 -3.4 4.9 -5.9 6.3 l-3.9 2.2 -191.3 0 c-175.2 0 -191.7 -0.2 -194.7 -1.7z m361.8 -89.8 l0 -54.5 -167 0 -167 0 0 54.5 0 54.5 167 0 167 0 0 -54.5z"/>
  <path d="M545.3 1645.1 c-3 -1.4 -4.8 -3.1 -6.2 -6 -2.1 -4 -2.1 -5.2 -2.1 -83.6 0 -77.2 0.1 -79.7 2 -83.4 1.3 -2.7 3.3 -4.6 6.3 -6 4.3 -2.1 5 -2.1 84.9 -2.1 l80.5 0 4.3 2.3 c8.5 4.5 8 -1.4 8 89.2 0 90.1 0.5 84.6 -7.6 89.2 l-3.9 2.3 -81 0 c-77.5 0 -81.2 -0.1 -85.2 -1.9z m141.7 -89.6 l0 -54.5 -57 0 -57 0 0 54.5 0 54.5 57 0 57 0 0 -54.5z"/>
  <path d="M765 1645.3 c-4.7 -2.4 -7.7 -7.3 -8.5 -13.6 -0.3 -2.9 -0.5 -39.2 -0.3 -80.7 0.3 -73.7 0.3 -75.6 2.3 -79 1.2 -2.1 3.9 -4.4 6.5 -5.7 l4.4 -2.3 80.1 0 80.1 0 4.4 2.3 c2.4 1.2 5.3 3.5 6.4 5 2.1 2.8 2.1 3.7 2.1 84.2 0 80.6 0 81.4 -2.1 84.1 -1.1 1.5 -3.3 3.7 -4.8 4.8 -2.7 2.1 -3.7 2.1 -84.9 2.4 -76.7 0.2 -82.4 0.1 -85.7 -1.5z m141.4 -37.5 c0.8 -3.1 0.8 -96.3 0 -102.2 l-0.7 -4.6 -56.3 0 -56.4 0 0 54.5 0 54.5 56.4 0 56.4 0 0.6 -2.2z"/>
  <path d="M987.3 1646.3 c-3.1 -0.6 -9.1 -7.6 -9.8 -11.5 -0.3 -1.8 -0.5 -38.7 -0.3 -82 0.3 -77.6 0.3 -78.7 2.4 -81.5 1.1 -1.5 4 -3.8 6.4 -5 l4.4 -2.3 80.1 0 80.1 0 4.4 2.3 c2.6 1.3 5.3 3.6 6.5 5.7 2 3.4 2 5 2 83.5 0 78.2 0 80.1 -2 83.4 -1.1 1.9 -3.3 4.3 -4.8 5.5 -2.8 2.1 -3.1 2.1 -85 2.2 -45.2 0.1 -83.2 -0.1 -84.4 -0.3z m139.7 -90.8 l0 -54.5 -56.5 0 -56.5 0 0 54.5 0 54.5 56.5 0 56.5 0 0 -54.5z"/>
  <path d="M1205.3 1644.9 c-3 -1.5 -4.8 -3.3 -6.2 -6.3 -2.1 -4.2 -2.1 -5.6 -2.1 -83.1 0 -77.4 0 -78.9 2 -83.1 4.1 -8.4 -1.3 -7.9 90.5 -8.2 l81 -0.2 4.5 2.2 c2.6 1.4 5.3 3.7 6.5 5.8 2 3.4 2 5 2 83.5 0 89 0.4 83.6 -6.7 88.7 l-3.3 2.3 -82 0.3 c-81.4 0.2 -82 0.2 -86.2 -1.9z m141.7 -88.9 l0 -55 -57 0 -57 0 0 54.5 0 54.5 56.8 0.3 c31.2 0.1 56.8 0.3 57 0.5 0.1 0.1 0.2 -24.5 0.2 -54.8z"/>
  <path d="M1427.4 1645.6 c-1.7 -0.8 -4.4 -3.1 -6 -5.2 l-2.9 -3.7 -0.3 -79.2 c-0.2 -62.1 0 -80 1 -83 0.8 -2.2 2.9 -5.1 5.1 -6.9 l3.9 -3.1 105.4 -0.3 105.4 -0.2 0 -95.6 c0 -91.8 0.1 -95.6 1.9 -99.2 1.1 -2.2 3.5 -4.6 5.9 -6 l4 -2.2 80.8 0 c80.1 0 80.8 0 85.1 2.1 3 1.4 5 3.3 6.3 6 2 3.8 2 6.8 2 184.9 0 180.8 0 181.1 -2.1 185.1 -1.4 2.9 -3.2 4.6 -6.2 6 -4.1 1.8 -9.6 1.9 -195.2 1.8 -158.7 0 -191.5 -0.2 -194.1 -1.3z m360.6 -188.5 c0 -84.1 0.3 -154.3 0.6 -156 l0.7 -3.1 -57.2 0 -57.1 0 0 94.8 0 94.8 -2.2 4.4 c-1.7 3.3 -3.5 5.1 -6.8 6.8 l-4.4 2.2 -103.8 0 -103.8 0 0 23.8 c0 13 0.3 37.5 0.7 54.5 l0.6 30.7 166.4 0 166.3 0 0 -152.9z"/>
  <path d="M104.5 1442.6 c-4.1 -1.8 -8.3 -6.9 -9 -10.9 -0.3 -1.8 -0.5 -38.6 -0.3 -81.9 0.3 -77.7 0.3 -78.7 2.4 -81.4 1.1 -1.5 3.3 -3.7 4.8 -4.8 2.7 -2.1 3.7 -2.1 84.9 -2.4 78.6 -0.2 82.4 -0.1 85.7 1.6 1.9 1.1 4.5 3.4 5.8 5.2 l2.2 3.3 0 81.1 c0 78.6 -0.1 81.2 -2 84.3 -1 1.8 -3.1 4 -4.7 5 -2.5 1.7 -7.6 1.8 -84.8 2 -66.7 0.2 -82.6 0 -85 -1.1z m140.5 -89.6 l0 -55 -56.5 0 -56.5 0 0 55 0 55 56.5 0 56.5 0 0 -55z"/>
  <path d="M325.6 1443 c-1.5 -0.5 -3.7 -1.7 -4.8 -2.7 -5.1 -4.6 -4.9 -1.6 -4.9 -88 0 -90.6 -0.5 -84.4 7.7 -89 l3.9 -2.3 82.2 0.3 c81.2 0.2 82.2 0.2 84.9 2.3 1.5 1.1 3.7 3.3 4.8 4.8 2.1 2.7 2.1 3.7 2.4 82.8 0.2 79.3 0.2 80.1 -1.8 84.4 -1.6 3.1 -3.3 4.8 -6.4 6.3 -4.2 2.1 -5.4 2.1 -84.7 2 -44.2 0 -81.7 -0.5 -83.3 -0.9z m140.2 -90.2 l0.2 -54.8 -57 0 -57 0 0 55 0 55 56.8 -0.2 56.7 -0.3 0.3 -54.7z"/>
  <path d="M545.3 1442.1 c-3 -1.4 -4.8 -3.1 -6.2 -6 -2.1 -4 -2.1 -5.2 -2.1 -83.7 0 -79.3 0 -79.6 2.1 -83.4 1.2 -2.1 3.8 -4.7 5.9 -5.9 3.8 -2.1 4.1 -2.1 85.1 -2.1 l81.4 0 3.9 2.3 c8.1 4.6 7.6 -0.9 7.6 89.2 0 90.7 0.5 85 -8 89.3 l-4.4 2.2 -80.6 0 c-77 0 -80.7 -0.1 -84.7 -1.9z m141.5 -89.3 l0.2 -54.8 -57 0 -57 0 0 54.3 c0 29.9 0.3 54.7 0.7 55 0.3 0.4 25.9 0.6 56.7 0.5 l56.1 -0.3 0.3 -54.7z"/>
  <path d="M766.6 1443 c-3.5 -1.1 -6.3 -3.6 -8.5 -7.5 -1.4 -2.7 -1.6 -10.6 -1.6 -83 0 -89 -0.4 -83.6 6.7 -88.7 l3.3 -2.3 83.2 0 c82.4 0 83.2 0 85.9 2.1 1.5 1.1 3.7 3.3 4.8 4.8 2.1 2.7 2.1 3.7 2.4 82.8 0.2 79.3 0.2 80.1 -1.8 84.4 -1.6 3.1 -3.3 4.8 -6.4 6.3 -4.2 2.1 -5.4 2.1 -84.7 2 -44.2 0 -81.7 -0.5 -83.3 -0.9z m139.8 -37.2 c0.8 -3.1 0.8 -92.5 -0.1 -101 l-0.6 -6.8 -56.3 0 -56.4 0 0 54.3 c0 29.9 0.3 54.7 0.7 55 0.3 0.4 25.7 0.7 56.4 0.7 l55.7 0 0.6 -2.2z"/>
  <path d="M986.5 1442.6 c-4.1 -1.8 -8.3 -6.9 -9 -10.9 -0.3 -1.8 -0.5 -38.6 -0.3 -81.9 0.3 -77.7 0.3 -78.7 2.4 -81.4 1.1 -1.5 3.3 -3.7 4.8 -4.8 2.7 -2.1 3.5 -2.1 85.9 -2.1 l83.2 0 3.3 2.3 c7.1 5.1 6.7 -0.3 6.7 88.7 0 89 0.4 83.6 -6.7 88.7 l-3.3 2.3 -82 0.2 c-66.7 0.2 -82.6 0 -85 -1.1z m140.5 -89.6 l0 -55 -56.5 0 -56.5 0 0 55 0 55 56.5 0 56.5 0 0 -55z"/>
  <path d="M1206.5 1442.6 c-4.1 -1.8 -8.3 -6.9 -9 -10.9 -0.3 -1.8 -0.5 -38.6 -0.3 -81.9 0.3 -77.7 0.3 -78.7 2.4 -81.4 1.1 -1.5 3.3 -3.7 4.8 -4.8 2.7 -2.1 3.7 -2.1 84.4 -2.4 l81.7 -0.2 4.5 2.2 c2.6 1.4 5.3 3.7 6.5 5.8 2 3.4 2 5 2 83.5 0 89 0.4 83.6 -6.7 88.7 l-3.3 2.3 -82 0.2 c-66.7 0.2 -82.6 0 -85 -1.1z m140.5 -89.6 l0 -55 -57 0 -57 0 0 54.3 c0 29.9 0.3 54.7 0.7 55 0.3 0.4 26 0.7 57 0.7 l56.3 0 0 -55z"/>
  <path d="M1426.3 1441.9 c-3 -1.5 -4.8 -3.3 -6.3 -6.3 -2 -4.3 -2 -5.2 -1.8 -84.4 0.3 -79.1 0.3 -80.1 2.4 -82.8 1.1 -1.5 3.3 -3.7 4.8 -4.8 2.7 -2.1 3.7 -2.1 84.8 -2.4 l82.1 -0.2 4.3 2.5 c8 4.7 7.5 -1.2 7.5 89.1 0 76 -0.1 80.6 -1.8 83.6 -1 1.7 -3.1 4 -4.6 5.2 -2.8 2.1 -3.2 2.1 -85 2.4 -81.6 0.2 -82.2 0.2 -86.4 -1.9z m141.7 -88.9 l0 -55 -57 0 -57 0 0 54.3 c0 29.9 0.3 54.7 0.7 55 0.3 0.4 26 0.7 57 0.7 l56.3 0 0 -55z"/>
  <path d="M103 1238.8 c-1.8 -1.3 -4.3 -3.6 -5.4 -5.1 -2.1 -2.8 -2.1 -3.5 -2.4 -82.3 -0.2 -77 -0.2 -79.7 1.7 -83.9 1.2 -2.7 3.3 -5.2 5.3 -6.5 3.2 -2 4.7 -2 86.3 -2 80.6 0 83.1 0.1 86.2 2 6.6 4 6.3 -0.5 6.3 88.7 0 78.9 -0.1 80.9 -2 84.1 -1.1 1.8 -3.4 4.1 -5.2 5.2 -3.2 1.9 -5.2 2 -85.4 2 l-82.1 0 -3.3 -2.2z m142 -88.8 l0 -55 -56.5 0 -56.5 0 0 55 0 55 56.5 0 56.5 0 0 -55z"/>
  <path d="M325 1239.9 c-1.3 -0.6 -3.3 -1.8 -4.3 -2.7 -4.9 -4.4 -4.8 -1.9 -4.8 -87.2 0 -89.8 -0.4 -85.2 7.2 -89 3.7 -1.9 6.5 -2 86.1 -2 79.8 0 82.4 0.1 85.5 2 7.3 4.4 6.8 -1.7 7.1 87.5 l0.2 80.1 -2.3 4.3 c-4.5 8.7 1.6 8.1 -90.7 8 -51.2 0 -82.4 -0.4 -84 -1z m140.8 -90.1 l0.2 -54.8 -57 0 -57 0 0 55 0 55 56.8 -0.2 56.7 -0.3 0.3 -54.7z"/>
  <path d="M545 1239.2 c-2 -0.9 -4.4 -3.4 -5.7 -5.7 l-2.3 -4 0 -79.5 c0 -88.7 -0.4 -83.9 6.9 -88.7 l3.4 -2.3 82.6 0 c80.7 0 82.7 0.1 85.9 2 1.8 1.1 4.1 3.4 5.2 5.2 1.9 3.2 2 5.2 2 83.3 0 89.2 0.4 84.4 -6.9 89.2 l-3.4 2.3 -82.1 0 c-76.2 0 -82.4 -0.1 -85.6 -1.8z m142 -89.2 l0 -55 -57 0 -57 0 0 54.3 c0 29.9 0.3 54.7 0.7 55 0.3 0.4 26 0.7 57 0.7 l56.3 0 0 -55z"/>
  <path d="M765 1239.2 c-5 -2.5 -7.7 -7.2 -8.5 -14.5 -0.3 -3.4 -0.5 -39.7 -0.3 -80.7 0.3 -72.4 0.4 -74.6 2.3 -77.9 1.1 -1.8 3.6 -4.2 5.5 -5.2 3.3 -1.8 7.4 -1.9 86.1 -1.9 l82.6 0 3.4 2.3 c7.3 4.8 6.9 0.1 6.9 88.1 0 78.2 0 79 -2.1 83.3 -1.4 3 -3.3 5 -6 6.3 -3.7 1.9 -6.3 2 -85.1 2 -75.4 0 -81.6 -0.1 -84.8 -1.8z m141.3 -40.9 c0.9 -8.8 0.9 -96.1 0.1 -100.2 l-0.6 -3.1 -56.4 0 -56.4 0 0 55 0 55 56.4 0 56.3 0 0.6 -6.7z"/>
  <path d="M985 1239.2 c-2 -1.2 -4.4 -3.7 -5.7 -6.3 l-2.3 -4.3 0.2 -80.1 c0.3 -89.2 -0.2 -83.1 7.1 -87.5 3.1 -1.9 5.7 -2 86.1 -2 82.4 0 82.9 0 86.3 2.1 7.2 4.5 6.8 -0.7 6.8 88.4 0 78.2 0 80.1 -2 83.4 -1.1 1.9 -3.3 4.3 -4.8 5.5 -2.8 2.1 -3.2 2.1 -85.5 2.4 -79.1 0.2 -82.9 0.1 -86.2 -1.6z m142 -89.2 l0 -55 -56.5 0 -56.5 0 0 55 0 55 56.5 0 56.5 0 0 -55z"/>
  <path d="M1206.5 1240.1 c-3.3 -1.4 -7.4 -6.2 -8.6 -10 -0.7 -2.4 -0.9 -29.5 -0.7 -82.6 0.3 -88 -0.2 -82.1 7.1 -86.5 3.1 -1.9 5.7 -2 86.1 -2 80.1 0 83 0.1 86 1.9 1.7 1.1 4 3.5 5.1 5.3 2 3.2 2 5.1 2 83.3 0 78.9 0 80 -2.1 83.5 -1.1 1.9 -3.5 4.5 -5.4 5.7 l-3.3 2.3 -82.1 -0.1 c-45.2 0 -83 -0.4 -84.1 -0.8z m140.5 -90.1 l0 -55 -57 0 -57 0 0 54.3 c0 29.9 0.3 54.7 0.7 55 0.3 0.4 26 0.7 57 0.7 l56.3 0 0 -55z"/>
  <path d="M1426.1 1239.2 c-2.2 -1 -4.4 -3.4 -5.8 -6.1 l-2.3 -4.4 0 -79.1 c0 -88.2 -0.4 -83.5 6.9 -88.3 l3.4 -2.3 82.4 0 c80.5 0 82.5 0 86.3 2 7.7 3.9 7.3 -1.3 7.1 89 -0.2 89.6 0.2 83.8 -7.1 88.7 l-3.3 2.3 -82.1 0 c-76.2 0 -82.3 -0.1 -85.5 -1.8z m141.9 -89.2 l0 -55 -57 0 -57 0 0 54.3 c0 29.9 0.3 54.7 0.7 55 0.3 0.4 26 0.7 57 0.7 l56.3 0 0 -55z"/>
  <path d="M1647 1239.2 c-1.9 -0.9 -4.5 -3.2 -5.7 -5.1 l-2.3 -3.4 0 -80.9 c0 -89.3 -0.3 -84.6 6.3 -88.7 3.4 -2.1 3.9 -2.1 86.4 -2.1 l83 0 3.4 2.3 c7.3 4.9 6.9 -0.1 6.7 89.4 -0.3 79.6 -0.3 80.2 -2.4 83 -1.1 1.5 -3.6 3.8 -5.4 5.1 l-3.3 2.2 -81.6 0 c-75.7 0 -81.9 -0.1 -85.1 -1.8z m141.4 -39.4 c0.8 -6.9 0.8 -97.6 0 -101.7 l-0.6 -3.1 -56.4 0 -56.4 0 0 55 0 55 56.4 0 56.3 0 0.7 -5.2z"/>
  <path d="M102.7 1024.8 c-2.3 -1.4 -4.5 -3.8 -5.7 -6.3 -1.9 -3.9 -2 -6.2 -2 -45.4 0 -39.5 0.1 -41.3 2 -45.2 1.2 -2.2 3.5 -4.9 5.3 -5.9 3.1 -1.9 5.6 -2 86.1 -2 82.4 0 82.9 0 86.3 2.1 6.4 4 6.3 3.3 6.3 51.1 0 41.4 -0.1 43.4 -2 46.6 -1.1 1.8 -3.4 4.1 -5.2 5.2 -3.2 1.9 -5.2 2 -85.3 2 l-82 0 -3.8 -2.2z m142.1 -51.5 l-0.3 -17.8 -56.2 -0.3 -56.3 -0.2 0 18 0 18 56.5 0 56.5 0 -0.2 -17.7z"/>
  <path d="M324 1025.2 c-1.9 -0.9 -4.5 -3.2 -5.7 -5.1 l-2.3 -3.4 0 -43.5 c0 -41.8 0.1 -43.6 2 -46.7 4.4 -7 0 -6.7 91.4 -6.6 90.6 0.2 85.1 -0.2 90 6.4 2 2.8 2.1 3.9 2.4 45.5 l0.3 42.7 -2.3 4.4 c-4.5 8.6 1.6 8.1 -90.8 8.1 -75.6 0 -81.8 -0.1 -85 -1.8z m141.5 -52.2 l0 -17.5 -56.7 -0.3 -56.8 -0.2 0 18 0 18 56.8 -0.2 56.7 -0.3 0 -17.5z"/>
  <path d="M545.4 1025.6 c-1.7 -0.8 -4.2 -2.9 -5.5 -4.7 l-2.4 -3.4 -0.3 -41.5 c-0.2 -22.8 0 -42.9 0.3 -44.7 0.7 -3.8 4.9 -9.1 8.1 -10.3 1.3 -0.5 39.4 -1 84.8 -1.1 92.5 -0.1 86.1 -0.6 90.5 7.2 2.1 3.7 2.2 4.5 1.9 47.3 -0.3 42.1 -0.4 43.5 -2.4 46.3 -1.1 1.5 -3.6 3.6 -5.5 4.5 -3.2 1.7 -9.2 1.8 -84.9 1.8 -66.2 -0.1 -82.1 -0.3 -84.6 -1.4z m141.1 -52.6 l0 -17.5 -56.5 0 -56.5 0 -0.3 16.5 c-0.1 9 0 17 0.2 17.7 0.4 1.1 11.5 1.3 56.8 1.1 l56.3 -0.3 0 -17.5z"/>
  <path d="M765 1025.2 c-4.7 -2.3 -7.7 -7.2 -8.5 -13.5 -0.4 -2.9 -0.5 -22.3 -0.3 -43.2 0.3 -35.9 0.4 -38.2 2.3 -41.4 1.1 -1.9 3.7 -4.3 5.7 -5.3 3.5 -1.8 6.9 -1.9 85.8 -1.9 77.2 0 82.4 0.1 85.2 1.8 1.7 1 4 3.1 5.2 4.6 2 2.8 2.1 3.9 2.4 45.6 l0.3 42.7 -2.3 4.3 c-4.6 8.6 1.6 8.1 -90.8 8.1 -75.6 0 -81.8 -0.1 -85 -1.8z m141.6 -37.7 c0.3 -2 0.5 -9.6 0.2 -17.1 -0.3 -10.5 -0.7 -13.7 -1.8 -14.4 -0.9 -0.6 -23.7 -0.9 -56.5 -0.7 l-55 0.2 -0.3 16.5 c-0.1 9 0 17 0.2 17.7 0.4 1 11.8 1.3 56.5 1.3 l56 0 0.7 -3.5z"/>
  <path d="M985 1025.2 c-2 -1.2 -4.4 -3.7 -5.8 -6.3 l-2.3 -4.3 0.3 -42.7 c0.3 -41.7 0.4 -42.8 2.4 -45.6 4.9 -6.6 -0.6 -6.2 90.6 -6.3 78.6 -0.2 82.9 -0.1 85.8 1.7 1.7 1 4.1 3.4 5.3 5.3 2.2 3.5 2.2 4.1 2.2 46 0 40.7 -0.1 42.6 -2 45.9 -1.1 1.9 -3.3 4.3 -4.8 5.5 -2.8 2.1 -3.2 2.1 -85.5 2.4 -79.1 0.2 -82.9 0.1 -86.2 -1.6z m141.8 -51.9 l-0.3 -17.8 -56.2 -0.3 -56.3 -0.2 0 18 0 18 56.5 0 56.5 0 -0.2 -17.7z"/>
  <path d="M1205 1025.2 c-2 -1.2 -4.4 -3.7 -5.8 -6.3 l-2.3 -4.3 0.3 -42.7 c0.3 -41.7 0.4 -42.8 2.4 -45.6 1.2 -1.5 3.5 -3.6 5.3 -4.6 3 -1.8 7.1 -1.9 85.8 -1.8 81.5 0.2 82.8 0.2 86 2.2 6.9 4.3 6.8 3.6 6.8 50.9 0 40.7 -0.1 42.6 -2 45.9 -1.1 1.9 -3.3 4.3 -4.8 5.5 -2.8 2.1 -3.2 2.1 -85.5 2.4 -79.1 0.2 -82.9 0.1 -86.2 -1.6z m141.8 -51.9 l-0.3 -17.8 -56.5 0 -56.5 0 -0.3 16.5 c-0.1 9 0 17 0.2 17.7 0.4 1 11.9 1.3 57.1 1.3 l56.5 0 -0.2 -17.7z"/>
  <path d="M1426.5 1025.5 c-1.6 -0.9 -4.1 -3.2 -5.5 -5.2 l-2.5 -3.7 -0.3 -42.5 c-0.3 -47.6 -0.3 -47.1 6.7 -51.8 l3.4 -2.3 83 0 c82.5 0 83 0 86.4 2.1 6.4 4 6.3 3.3 6.3 51.2 l0 43.4 -2.3 3.4 c-4.8 7.3 0.2 6.9 -90.7 6.9 -70.1 0 -81.9 -0.3 -84.5 -1.5z m141.5 -52.5 l0 -18 -56.7 0.2 -56.8 0.3 -0.3 16.5 c-0.1 9 0 17 0.2 17.7 0.4 1 11.9 1.3 57.1 1.3 l56.5 0 0 -18z"/>
  <path d="M1647 1025.2 c-1.9 -0.9 -4.5 -3.2 -5.7 -5.1 l-2.3 -3.4 0 -43.6 c0 -41 0.1 -43.8 1.9 -46.5 1 -1.5 3.2 -3.7 4.7 -4.7 2.8 -1.8 6.3 -1.9 86 -1.9 l83.1 0 3.3 2.3 c7 4.8 7 4.4 7 50.6 0 39.4 -0.1 41.7 -2 45.6 -1.3 2.6 -3.4 4.9 -5.9 6.3 l-3.9 2.2 -81.3 0 c-75.5 0 -81.7 -0.1 -84.9 -1.8z m141.8 -44.2 c0.2 -5.2 0 -13.2 -0.3 -17.7 l-0.7 -8.3 -56.4 0 -56.4 0 0 18 0 18 56.8 -0.2 56.7 -0.3 0.3 -9.5z"/>
 </g>
 <g fill="#fd6e5d">
  <path d="M1452.4 1612.9 c-0.2 -0.4 -0.7 -26.4 -1.1 -57.8 l-0.6 -57.1 103.9 0 104 0 4.4 -2.2 c3.3 -1.7 5.1 -3.5 6.7 -6.8 l2.3 -4.4 0 -94.8 0 -94.8 59 0 c32.5 0 59.2 0 59.5 0 0.3 0 0.6 71.6 0.6 159 l-0.1 159.1 -169.1 0.2 c-93 0.1 -169.3 -0.1 -169.5 -0.4z"/>
 </g>
 <g fill="#f8b859">
  <path d="M129 973 l0 -21 58.8 0 c35.7 0 59.2 0.4 59.7 0.9 0.6 0.6 0.9 9.3 0.7 21 l-0.3 20.1 -59.4 0 -59.5 0 0 -21z"/>
 </g>
 <g fill="#87dbfd">
  <path d="M349.6 1816.3 c-0.3 -0.4 -0.6 -26.5 -0.6 -58 l0.1 -57.3 390.5 0 390.4 0 -0.2 57.8 -0.3 57.7 -389.6 0.3 c-214.3 0.1 -389.9 -0.1 -390.3 -0.5z"/>
 </g>
 <g fill="#ccd5de">
  <path d="M30.5 1888.8 c-0.3 -0.7 -0.4 -228.1 -0.3 -505.3 l0.3 -504 929.8 -0.2 929.7 -0.3 0 505.5 0 505.5 -929.5 0 c-742.7 0 -929.7 -0.3 -930 -1.2z m240.3 -44.1 c1.8 -1 4.2 -3.2 5.2 -5 1.9 -3.1 2 -5.6 2 -81.3 l0 -78.1 -2.2 -3.3 c-1.3 -1.8 -3.9 -4.1 -5.8 -5.1 -3.3 -1.8 -7.5 -1.9 -81.1 -1.9 -85.1 0 -82 -0.2 -87.2 6 -1.5 1.7 -2.8 4.9 -3.2 7.3 -0.3 2.3 -0.5 37.8 -0.3 78.9 l0.3 74.6 3.1 3.8 c1.6 2.1 4.6 4.3 6.5 5 2.6 1 20.9 1.2 81.4 1.1 73 -0.2 78.2 -0.3 81.3 -2z m882.5 -0.5 c7.6 -4.8 7.2 0.5 7.2 -85.7 0 -86.9 0.5 -81.1 -7.8 -86 l-4.4 -2.5 -409.6 0.2 -409.6 0.3 -2.8 2.1 c-1.5 1.1 -3.8 3.6 -5 5.4 l-2.3 3.3 0 76.9 c0 83 -0.2 79.5 5.3 84.6 1.3 1.3 3.7 2.7 5.3 3.2 1.6 0.4 183.9 0.8 411.4 0.7 l408.5 -0.2 3.8 -2.3z m219.7 0.3 c1.9 -1.2 4.3 -3.6 5.5 -5.5 2 -3.4 2 -4.9 2 -80.5 0 -85.6 0.4 -80.6 -6.7 -85.7 l-3.3 -2.3 -80.2 0 c-79.4 0 -80.2 0 -82.9 2.1 -1.5 1.1 -3.7 3.3 -4.8 4.8 -2.1 2.7 -2.1 3.8 -2.4 78.9 -0.2 50.1 0.1 77.4 0.7 79.7 1.2 4.1 5.3 8.3 9.6 9.8 2 0.7 28.2 1 81 0.9 76.5 -0.2 78.1 -0.2 81.5 -2.2z m221 0 c7.4 -4.4 6.9 0.9 7 -85.9 0.1 -87.6 0.6 -81.7 -7.6 -86.3 l-3.9 -2.3 -77.6 0 c-83.6 0 -81.7 -0.1 -86.6 5.2 -1.2 1.2 -2.6 3.6 -3.2 5.1 -0.8 1.9 -1.1 27.3 -1.1 78.3 0 81.5 -0.1 79.2 5.3 84.3 1.4 1.3 4.1 2.7 5.9 3.1 1.8 0.5 38.2 0.7 80.8 0.7 76 -0.2 77.6 -0.2 81 -2.2z m221.4 -0.9 c7 -5.3 6.7 -1.2 6.4 -86.5 -0.3 -76 -0.3 -77 -2.4 -79.7 -1.1 -1.5 -3.3 -3.7 -4.8 -4.8 -2.7 -2.1 -3.5 -2.1 -82.4 -2.1 -88 0 -83.4 -0.3 -87.9 6.4 l-2.3 3.4 0 77.9 c0 82.3 -0.1 81 4.4 84.7 4.8 4 6.2 4 87.2 3.8 l78.1 -0.2 3.7 -2.9z m-1324.3 -201.8 c2.5 -1.4 4.6 -3.7 5.9 -6.3 2 -4.1 2 -5.7 1.8 -81.3 -0.3 -76 -0.3 -77.1 -2.4 -79.9 -1.1 -1.5 -4 -3.8 -6.4 -5 l-4.4 -2.3 -187.1 0 c-182.2 0 -187.1 0.1 -191.2 2 -2.5 1.1 -5.1 3.3 -6.3 5.2 -2 3.2 -2 4.8 -2 81.3 l0 78 2.4 3.6 c5.1 7.5 -12.4 6.9 197.5 6.9 l188.3 0 3.9 -2.2z m221.3 -0.1 c8.1 -4.6 7.6 0.5 7.6 -86.2 0 -87.2 0.5 -81.7 -8 -86.2 l-4.3 -2.3 -77.5 0 c-76.8 0 -77.6 0 -81.9 2.1 -3 1.4 -5 3.3 -6.3 6 -1.9 3.7 -2 6.2 -2 80.4 0 75.3 0 76.6 2.1 80.6 1.4 2.9 3.2 4.6 6.2 6 4 1.8 7.7 1.9 82.2 1.9 l78 0 3.9 -2.3z m220.2 -0.3 c1.5 -1.1 3.7 -3.3 4.8 -4.8 2.1 -2.7 2.1 -3.5 2.1 -81.1 0 -77.5 0 -78.4 -2.1 -81.2 -1.1 -1.5 -4 -3.8 -6.4 -5 l-4.4 -2.3 -77.1 0 -77.1 0 -4.4 2.3 c-2.6 1.3 -5.3 3.6 -6.5 5.7 -1.9 3.4 -2 5.3 -2.3 76 -0.2 39.9 0 74.8 0.3 77.7 0.8 6.3 3.8 11.2 8.5 13.6 3.3 1.6 8.8 1.7 82.7 1.5 78.2 -0.3 79.2 -0.3 81.9 -2.4z m221.1 0 c1.5 -1.2 3.7 -3.6 4.8 -5.5 2 -3.3 2 -5.2 2 -80.4 0 -75.5 0 -77.1 -2 -80.5 -1.2 -2.1 -3.9 -4.4 -6.5 -5.7 l-4.4 -2.3 -77.1 0 -77.1 0 -4.4 2.3 c-2.4 1.2 -5.3 3.5 -6.4 5 -2.1 2.8 -2.1 3.9 -2.4 78.5 -0.2 41.6 0 77.2 0.3 79 0.7 3.9 6.7 10.9 9.8 11.5 1.2 0.2 37.8 0.4 81.4 0.3 78.8 -0.1 79.2 -0.1 82 -2.2z m220.1 -0.2 c7.1 -5.1 6.7 -0.1 6.7 -85.7 0 -75.5 0 -77.1 -2 -80.5 -1.2 -2.1 -3.9 -4.4 -6.5 -5.8 l-4.5 -2.2 -78 0.2 c-88.4 0.3 -83.4 -0.1 -87.5 8.2 -2 4.1 -2 5.7 -2 80.1 0 74.5 0 75.9 2.1 80.1 1.4 3 3.2 4.8 6.2 6.3 4.2 2.1 4.8 2.1 83.2 1.9 l79 -0.3 3.3 -2.3z m439.9 0.9 c3 -1.4 4.8 -3.1 6.2 -6 2.1 -4 2.1 -4.3 2.1 -182.1 0 -175.1 0 -178.1 -2 -181.9 -1.3 -2.7 -3.3 -4.6 -6.3 -6 -4.3 -2.1 -5.1 -2.1 -82.1 -2.1 l-77.8 0 -4 2.2 c-2.4 1.4 -4.8 3.8 -5.9 6 -1.8 3.6 -1.9 7.4 -1.9 99.2 l0 95.6 -105.4 0.2 -105.4 0.3 -3.9 3.1 c-2.2 1.8 -4.3 4.7 -5.1 6.9 -1 3 -1.2 20.3 -1 80 l0.3 76.2 2.9 3.7 c1.6 2.1 4.3 4.4 6 5.2 2.6 1.1 34.9 1.3 191.1 1.3 182.7 0.1 188.1 0 192.2 -1.8z m-1542.4 -203.4 c1.6 -1 3.7 -3.2 4.7 -5 1.9 -3.1 2 -5.7 2 -81.3 l0 -78.1 -2.2 -3.3 c-1.3 -1.8 -3.9 -4.1 -5.8 -5.2 -3.3 -1.7 -7 -1.8 -82.7 -1.6 -78.2 0.3 -79.2 0.3 -81.9 2.4 -1.5 1.1 -3.7 3.3 -4.8 4.8 -2.1 2.7 -2.1 3.8 -2.4 78.4 -0.2 41.6 0 77.1 0.3 78.9 0.7 4 4.9 9.1 9 10.9 2.4 1.1 17.8 1.3 82 1.1 74.3 -0.2 79.3 -0.3 81.8 -2z m219.3 0.2 c3.1 -1.5 4.8 -3.2 6.4 -6.3 2 -4.3 2 -5.1 1.8 -81.4 -0.3 -76.1 -0.3 -77.1 -2.4 -79.8 -1.1 -1.5 -3.3 -3.7 -4.8 -4.8 -2.7 -2.1 -3.7 -2.1 -81.9 -2.3 l-79.2 -0.3 -3.9 2.3 c-8.1 4.5 -7.6 -1.3 -7.6 86 -0.1 83.1 -0.2 80.5 4.8 85 1.1 1 3.3 2.2 4.8 2.7 1.6 0.4 37.7 0.9 80.3 0.9 76.3 0.1 77.5 0.1 81.7 -2z m221.4 -0.1 c8.5 -4.3 8 1 8 -86.3 0 -86.7 0.5 -81.6 -7.6 -86.2 l-3.9 -2.3 -78.4 0 c-77.9 0 -78.3 0 -82.1 2.1 -2.1 1.2 -4.7 3.8 -5.9 5.9 -2.1 3.8 -2.1 4.2 -2.1 80.4 0 75.4 0 76.7 2.1 80.7 1.4 2.9 3.2 4.6 6.2 6 4 1.8 7.7 1.9 81.7 1.9 l77.6 0 4.4 -2.2z m219.6 0.1 c3.1 -1.5 4.8 -3.2 6.4 -6.3 2 -4.3 2 -5.1 1.8 -81.4 -0.3 -76.1 -0.3 -77.1 -2.4 -79.8 -1.1 -1.5 -3.3 -3.7 -4.8 -4.8 -2.7 -2.1 -3.5 -2.1 -82.9 -2.1 l-80.2 0 -3.3 2.3 c-7.1 5.1 -6.7 0.1 -6.7 85.7 0 69.6 0.2 77.3 1.6 80 2.2 3.9 5 6.4 8.5 7.5 1.6 0.4 37.7 0.9 80.3 0.9 76.3 0.1 77.5 0.1 81.7 -2z m222.2 -0.7 c7.1 -5.1 6.7 -0.1 6.7 -85.7 0 -85.6 0.4 -80.6 -6.7 -85.7 l-3.3 -2.3 -80.2 0 c-79.4 0 -80.2 0 -82.9 2.1 -1.5 1.1 -3.7 3.3 -4.8 4.8 -2.1 2.7 -2.1 3.8 -2.4 78.4 -0.2 41.6 0 77.1 0.3 78.9 0.7 4 4.9 9.1 9 10.9 2.4 1.1 17.8 1.3 82 1.1 l79 -0.2 3.3 -2.3z m220 0 c7.1 -5.1 6.7 -0.1 6.7 -85.7 0 -75.5 0 -77.1 -2 -80.5 -1.2 -2.1 -3.9 -4.4 -6.5 -5.8 l-4.5 -2.2 -78.7 0.2 c-77.7 0.3 -78.7 0.3 -81.4 2.4 -1.5 1.1 -3.7 3.3 -4.8 4.8 -2.1 2.7 -2.1 3.8 -2.4 78.4 -0.2 41.6 0 77.1 0.3 78.9 0.7 4 4.9 9.1 9 10.9 2.4 1.1 17.8 1.3 82 1.1 l79 -0.2 3.3 -2.3z m220.9 0.2 c1.5 -1.2 3.6 -3.5 4.6 -5.2 1.7 -2.8 1.8 -7.9 1.7 -80.6 0 -87 0.5 -81.5 -7.4 -86.1 l-4.3 -2.5 -79.1 0.2 c-78.1 0.3 -79.1 0.3 -81.8 2.4 -1.5 1.1 -3.7 3.3 -4.8 4.8 -2.1 2.7 -2.1 3.7 -2.4 79.8 -0.2 76.2 -0.2 77.1 1.8 81.4 1.5 3 3.3 4.8 6.3 6.3 4.2 2.1 4.8 2.1 83.4 1.9 78.7 -0.3 79.2 -0.3 82 -2.4z m-1323.9 -202.4 c1.8 -1.1 4.1 -3.4 5.2 -5.2 1.9 -3.2 2 -5.2 2 -81.1 0 -85.9 0.3 -81.7 -6.3 -85.7 -3.1 -1.9 -5.6 -2 -83.2 -2 -78.5 0 -80.1 0 -83.3 2 -2 1.3 -4.1 3.8 -5.3 6.5 -1.9 4.2 -1.9 6.9 -1.7 80.9 0.3 75.8 0.3 76.5 2.4 79.3 1.1 1.5 3.6 3.8 5.4 5.1 l3.3 2.2 79.1 0 c77.2 0 79.2 -0.1 82.4 -2z m220.2 0.1 c2 -1.1 4.4 -3.6 5.7 -6.2 l2.3 -4.3 -0.2 -77.1 c-0.3 -85.8 0.1 -80.1 -7.1 -84.5 -3.1 -1.9 -5.7 -2 -82.5 -2 -76.6 0 -79.4 0.1 -83.1 2 -7.5 3.8 -7.2 -0.5 -7.1 86 0 82 -0.1 79.9 4.7 84.2 1 0.9 3 2.1 4.3 2.7 1.6 0.6 31.7 1 81 1 74.6 0.1 78.7 0 82 -1.8z m222.1 -0.4 c7.3 -4.8 6.9 -0.3 6.9 -86.2 0 -75.1 -0.1 -77.1 -2 -80.3 -1.1 -1.8 -3.4 -4.1 -5.2 -5.2 -3.2 -1.9 -5.2 -2 -82.9 -2 l-79.6 0 -3.4 2.3 c-7.3 4.8 -6.9 0.4 -6.9 85.7 l0 76.5 2.3 4 c4.4 7.9 -0.7 7.5 88.3 7.5 l79.1 0 3.4 -2.3z m218.8 0.3 c2.7 -1.3 4.6 -3.3 6 -6.3 2.1 -4.3 2.1 -5.1 2.1 -80.3 0 -84.6 0.3 -80.3 -6.9 -85.1 l-3.4 -2.3 -79.6 0 c-75.8 0 -79.8 0.1 -83.1 1.9 -1.9 1 -4.4 3.4 -5.5 5.2 -1.9 3.3 -2 5.5 -2.3 74.9 -0.2 39.3 0 74.3 0.3 77.7 0.8 7.3 3.5 12 8.5 14.5 3.2 1.7 9.3 1.8 81.8 1.8 75.9 0 78.4 -0.1 82.1 -2z m221.8 -0.6 c1.5 -1.2 3.7 -3.6 4.8 -5.5 2 -3.3 2 -5.2 2 -80.4 0 -85.8 0.4 -80.9 -6.8 -85.4 -3.4 -2.1 -4 -2.1 -83.3 -2.1 -77.4 0 -80 0.1 -83.1 2 -7.2 4.4 -6.8 -1.3 -7.1 84.5 l-0.2 77.1 2.3 4.3 c4.5 8.7 -1.5 8.2 88.9 7.9 79.2 -0.3 79.7 -0.3 82.5 -2.4z m219.3 0.3 c1.9 -1.2 4.3 -3.8 5.4 -5.7 2.1 -3.4 2.1 -4.6 2.1 -80.5 0 -75.2 0 -77.1 -2 -80.3 -1.1 -1.8 -3.4 -4.2 -5.1 -5.3 -3 -1.8 -5.8 -1.9 -83 -1.9 -77.4 0 -80 0.1 -83.1 2 -7.2 4.4 -6.8 -1.2 -7.1 83.5 -0.2 51.1 0 77.2 0.7 79.6 1.2 3.8 5.3 8.6 8.6 10 1.1 0.4 37.6 0.8 81.1 0.8 l79.1 0.1 3.3 -2.3z m221 0 c7.4 -4.9 6.9 0.6 7 -85.9 0.1 -86.8 0.5 -82 -7 -85.8 -3.8 -2 -5.8 -2 -83.3 -2 l-79.4 0 -3.4 2.3 c-7.2 4.8 -6.9 0.4 -6.9 85.3 l0 76.1 2.3 4.4 c4.4 8.4 -1.2 7.9 88.3 7.9 l79.1 0 3.3 -2.3z m220 0.1 c1.8 -1.3 4.3 -3.6 5.4 -5.1 2.1 -2.8 2.1 -3.5 2.4 -80 0.2 -86.2 0.6 -81.6 -6.7 -86.4 l-3.4 -2.3 -80 0 c-79.4 0 -80 0 -83.4 2.1 -6.6 4.1 -6.3 -0.3 -6.3 85.7 l0 77.9 2.3 3.4 c4.8 7.3 0.2 6.9 87.8 6.9 l78.6 0 3.3 -2.2z m-1543.2 -213.8 c1.8 -1.1 4.1 -3.4 5.2 -5.2 1.9 -3.2 2 -5.2 2 -43.6 0 -44.5 0.1 -44.2 -6.3 -48.1 -3.4 -2.1 -4 -2.1 -83.3 -2.1 -77.6 0 -80 0.1 -83.1 2 -1.8 1 -4.1 3.7 -5.3 5.9 -1.9 3.8 -2 5.7 -2 42.2 0 36.2 0.1 38.5 2 42.4 1.2 2.5 3.4 4.9 5.7 6.3 l3.8 2.2 79 0 c77.1 0 79.1 -0.1 82.3 -2z m220.2 0.2 c2.2 -1.2 4.4 -3.5 5.8 -6.3 2.2 -4.4 2.3 -4.5 2 -44.1 -0.3 -38.5 -0.4 -39.7 -2.4 -42.5 -5 -6.6 0.3 -6.3 -87.2 -6.3 -87.9 -0.1 -83.9 -0.4 -88.2 6.5 -1.9 3.1 -2 4.9 -2 43.7 0 40.4 0 40.5 2.3 43.9 4.8 7.3 0.2 6.9 87.7 6.9 74.1 0 78.7 -0.1 82 -1.8z m220.9 0 c1.9 -0.9 4.4 -3 5.5 -4.5 2 -2.8 2.1 -4.2 2.4 -43.3 0.3 -39.7 0.2 -40.6 -1.9 -44.3 -4.3 -7.7 1.6 -7.2 -87.3 -7.1 -44.4 0 -80.6 0.4 -81.9 0.9 -3.3 1.3 -7.5 6.6 -8.2 10.4 -0.3 1.8 -0.5 20.5 -0.3 41.7 l0.3 38.5 2.4 3.4 c4.5 6.3 1 6 87.1 6.1 72.8 0 78.7 -0.1 81.9 -1.8z m220.1 -0.1 c2 -1.1 4.4 -3.6 5.8 -6.2 l2.3 -4.3 -0.3 -39.7 c-0.3 -38.6 -0.4 -39.8 -2.4 -42.6 -5 -6.7 0.3 -6.3 -87.4 -6.3 -75.5 0 -79.5 0 -82.9 1.8 -2 1.1 -4.5 3.4 -5.6 5.3 -1.9 3.2 -2 5.5 -2.3 38.4 -0.4 38.9 -0.1 43.9 3.1 48.7 4.8 7.1 0.3 6.8 87.7 6.8 74.6 0 78.7 -0.1 82 -1.9z m221.7 -0.7 c1.5 -1.2 3.7 -3.6 4.8 -5.5 1.9 -3.2 2 -5.2 2 -42.9 0 -38.9 0 -39.6 -2.2 -43 -4.7 -7.5 1.2 -7 -87.9 -7 -88.1 0 -82.8 -0.4 -87.8 6.3 -2 2.8 -2.1 4 -2.4 42.6 l-0.3 39.7 2.3 4.3 c4.6 8.7 -1.4 8.2 89 7.9 79.2 -0.3 79.7 -0.3 82.5 -2.4z m220 0 c1.5 -1.2 3.7 -3.6 4.8 -5.5 1.9 -3.2 2 -5.2 2 -42.9 0 -44 0 -43.6 -6.8 -47.9 -3.4 -2 -4.1 -2.1 -83.1 -2.1 -74.8 -0.1 -80 0 -82.8 1.7 -1.7 1 -4 3.1 -5.2 4.6 -2 2.8 -2.1 4 -2.4 42.6 l-0.3 39.7 2.3 4.3 c4.6 8.7 -1.4 8.2 89 7.9 79.2 -0.3 79.7 -0.3 82.5 -2.4z m219.3 0.8 c1.9 -0.9 4.5 -3.2 5.7 -5.1 2.3 -3.4 2.3 -3.5 2.3 -43.8 0 -44.6 0.1 -44.3 -6.3 -48.2 -3.4 -2.1 -4 -2.1 -83.4 -2.1 l-80 0 -3.4 2.3 c-7 4.6 -7 4.6 -6.7 48.8 l0.3 39.5 2.5 3.7 c4.8 7 0 6.7 87 6.7 72.8 0 78.8 -0.1 82 -1.8z m221.1 -0.4 c2.5 -1.4 4.6 -3.7 5.9 -6.3 1.9 -3.9 2 -6.2 2 -42.6 0 -42.8 0 -42.9 -7 -47.6 l-3.3 -2.3 -80.1 0 c-76.8 0 -80.2 0.1 -83 1.9 -1.5 1 -3.7 3.2 -4.7 4.7 -1.8 2.7 -1.9 5.4 -1.9 43.5 0 40.6 0 40.6 2.3 44 4.8 7.3 0.2 6.9 87.6 6.9 l78.3 0 3.9 -2.2z"/>
  <path d="M1558 570.4 c0 -3.5 0 -3.5 4.2 -3.2 2.3 0.2 4.3 0.8 4.5 1.5 0.4 1 -6.3 5.3 -8.2 5.3 -0.3 0 -0.5 -1.6 -0.5 -3.6z"/>
 </g>
 <g fill="#ffffff">
  <path d="M0 1915.3 l0 -4.8 2 3.2 c1 1.7 3.2 3.9 4.7 4.7 l2.8 1.5 -4.7 0.1 -4.8 0 0 -4.7z"/>
  <path d="M1913.6 1918.1 c1.8 -1.1 3.9 -3 4.8 -4.2 1.6 -2.3 1.6 -2.3 1.6 1.9 l0 4.2 -4.7 0 -4.8 0 3.1 -1.9z"/>
  <path d="M129 1759 l0 -58 59.5 0 59.5 0 0 58 0 58 -59.5 0 -59.5 0 0 -58z"/>
  <path d="M1230.7 1816.3 c-0.4 -0.3 -0.7 -26.4 -0.7 -58 l0 -57.3 60 0 60 0 0 58 0 58 -59.3 0 c-32.7 0 -59.7 -0.3 -60 -0.7z"/>
  <path d="M1451.7 1816.3 c-0.4 -0.3 -0.7 -26.4 -0.7 -58 l0 -57.3 60 0 60 0 0 58 0 58 -59.3 0 c-32.7 0 -59.7 -0.3 -60 -0.7z"/>
  <path d="M1672 1759 l0 -58 60 0 60 0 -0.2 57.8 -0.3 57.7 -59.7 0.3 -59.8 0.2 0 -58z"/>
  <path d="M129.4 1613.1 c-0.2 -0.2 -0.4 -26.2 -0.4 -57.8 l0 -57.3 170 0 170 0 -0.2 57.5 -0.3 57.5 -169.3 0.3 c-93.2 0.1 -169.6 0 -169.8 -0.2z"/>
  <path d="M570.4 1613.1 c-0.2 -0.2 -0.4 -26.2 -0.4 -57.8 l0 -57.3 60 0 60 0 -0.2 57.5 -0.3 57.5 -59.3 0.3 c-32.7 0.1 -59.6 0 -59.8 -0.2z"/>
  <path d="M790.4 1613.1 c-0.2 -0.2 -0.4 -26.2 -0.4 -57.8 l0 -57.3 60 0 59.9 0 -0.2 57.6 -0.2 57.6 -59.3 0.1 c-32.7 0.1 -59.6 0 -59.8 -0.2z"/>
  <path d="M1011 1612.5 c0 -0.5 -0.1 -26.5 -0.3 -57.8 l-0.2 -56.7 59.8 0 59.7 0 0 57.8 0 57.7 -59.5 0 c-39 0 -59.5 -0.3 -59.5 -1z"/>
  <path d="M1230.4 1613.1 c-0.2 -0.2 -0.4 -26.2 -0.4 -57.8 l0 -57.3 60 0 60 0 0 57.8 0 57.7 -59.6 0 c-32.8 0 -59.8 -0.2 -60 -0.4z"/>
  <path d="M129 1353 l0 -58 59.5 0 59.5 0 0 58 0 58 -59.5 0 -59.5 0 0 -58z"/>
  <path d="M349 1352.8 l0 -58.3 60 0.3 60 0.2 -0.2 57.8 -0.3 57.7 -59.7 0.3 -59.8 0.2 0 -58.2z"/>
  <path d="M570.7 1410.3 c-0.4 -0.3 -0.7 -26.4 -0.7 -58 l0 -57.3 60 0 60 0 -0.2 57.8 -0.3 57.7 -59.1 0.3 c-32.5 0.1 -59.4 -0.1 -59.7 -0.5z"/>
  <path d="M790.7 1410.3 c-0.4 -0.3 -0.7 -26.4 -0.7 -58 l0 -57.3 59.4 0 59.4 0 0.7 9.3 c0.3 5 0.5 31 0.3 57.7 l-0.3 48.5 -59.1 0.3 c-32.5 0.1 -59.4 -0.1 -59.7 -0.5z"/>
  <path d="M1010.8 1410.3 c-0.2 -0.5 -0.2 -26.6 0 -58 l0.2 -57.3 59.5 0 59.5 0 0 58 0 58 -59.4 0 c-32.7 0 -59.6 -0.3 -59.8 -0.7z"/>
  <path d="M1230.7 1410.3 c-0.4 -0.3 -0.7 -26.4 -0.7 -58 l0 -57.3 60 0 60 0 0 58 0 58 -59.3 0 c-32.7 0 -59.7 -0.3 -60 -0.7z"/>
  <path d="M1451.7 1410.3 c-0.4 -0.3 -0.7 -26.4 -0.7 -58 l0 -57.3 60 0 60 0 0 58 0 58 -59.3 0 c-32.7 0 -59.7 -0.3 -60 -0.7z"/>
  <path d="M129 1150 l0 -58 59.3 0 c32.7 0 59.6 0.2 59.8 0.4 0.2 0.2 0.3 26.3 0.1 58 l-0.2 57.6 -59.5 0 -59.5 0 0 -58z"/>
  <path d="M349 1150 l0 -58 60 0 60 0 -0.2 57.8 -0.3 57.7 -59.7 0.3 -59.8 0.2 0 -58z"/>
  <path d="M570.7 1207.3 c-0.4 -0.3 -0.7 -26.4 -0.7 -58 l0 -57.3 60 0 60 0 0 58 0 58 -59.3 0 c-32.7 0 -59.7 -0.3 -60 -0.7z"/>
  <path d="M790 1150 l0 -58 60 0 60 0 -0.2 57.8 -0.3 57.7 -59.7 0.3 -59.8 0.2 0 -58z"/>
  <path d="M1011 1207.3 c0 -0.5 0 -26.4 -0.1 -57.8 l0 -57 59.5 -0.3 59.6 -0.2 0 58 0 58 -59.5 0 c-32.7 0 -59.5 -0.3 -59.5 -0.7z"/>
  <path d="M1230.7 1207.3 c-0.4 -0.3 -0.7 -26.4 -0.7 -58 l0 -57.3 60 0 60 0 0 58 0 58 -59.3 0 c-32.7 0 -59.7 -0.3 -60 -0.7z"/>
  <path d="M1451.7 1207.3 c-0.4 -0.3 -0.7 -26.4 -0.7 -58 l0 -57.3 60 0 60 0 0 58 0 58 -59.3 0 c-32.7 0 -59.7 -0.3 -60 -0.7z"/>
  <path d="M1672 1150 l0 -58 60 0 60 0 -0.3 57.8 -0.2 57.7 -59.7 0.3 -59.8 0.2 0 -58z"/>
  <path d="M349 973 l0 -21 59.8 0.2 59.7 0.3 0 20.5 0 20.5 -59.7 0.3 -59.8 0.2 0 -21z"/>
  <path d="M570.4 992.7 c-0.2 -0.7 -0.3 -10 -0.2 -20.7 l0.3 -19.5 59.5 0 59.5 0 0 20.5 0 20.5 -59.3 0.3 c-47.6 0.2 -59.4 0 -59.8 -1.1z"/>
  <path d="M790.4 992.7 c-0.2 -0.7 -0.3 -10 -0.2 -20.7 l0.3 -19.5 59.2 -0.2 c55.3 -0.2 59.2 -0.1 59.7 1.5 0.3 0.9 0.5 10.3 0.3 20.7 l-0.2 19 -59.3 0.3 c-47.6 0.2 -59.4 0 -59.8 -1.1z"/>
  <path d="M1010.8 974.3 c-0.2 -10.9 -0.2 -20.4 0 -21.1 0.3 -1 12.8 -1.2 59.6 -1 l59.1 0.3 0.3 20.8 0.2 20.7 -59.4 0 -59.4 0 -0.4 -19.7z"/>
  <path d="M1230.4 992.7 c-0.2 -0.7 -0.3 -10 -0.2 -20.7 l0.3 -19.5 59.5 0 59.5 0 0.3 20.8 0.2 20.7 -59.5 0 c-47.5 0 -59.7 -0.3 -60.1 -1.3z"/>
  <path d="M1451.4 992.7 c-0.2 -0.7 -0.3 -10 -0.2 -20.7 l0.3 -19.5 59.8 -0.3 59.7 -0.2 0 21 0 21 -59.5 0 c-47.5 0 -59.7 -0.3 -60.1 -1.3z"/>
  <path d="M1672 973 l0 -21 59.8 0.2 59.7 0.3 0 20.5 0 20.5 -59.7 0.3 -59.8 0.2 0 -21z"/>
  <path d="M0 429.3 l0 -429.3 245.8 0 c233 0.1 245.6 0.1 242.9 1.8 -1.5 0.9 -3.6 3.5 -4.7 5.8 -1.9 3.9 -2 6.4 -2 60 0 30.7 0.5 60.2 1 65.4 1.3 12.7 4.6 28.5 8.1 39.5 2.7 8.5 14.6 33.9 17.5 37.4 0.7 0.9 4.2 5.6 7.9 10.6 8.2 11.2 22.9 27.1 31.7 34.1 3.7 3 6.9 5.4 7.2 5.4 0.3 0 4.4 2.5 9.1 5.6 15.1 9.8 41.3 20.7 55.5 22.9 2.5 0.4 5 1.1 5.5 1.6 0.6 0.4 2 0.8 3 0.8 1.1 0 4.3 0.6 7 1.2 3.9 1 105.1 1.4 445.5 1.9 408.2 0.5 441.1 0.7 448.6 2.3 11.5 2.4 25.4 7.2 35.9 12.4 9 4.5 22.7 13 23.3 14.5 0.2 0.4 0.8 0.8 1.3 0.8 1.4 0 4.5 2.8 13 11.6 30.2 31 43.9 63.6 43.9 104.5 0 22.3 -5.2 45.4 -14.2 63.3 -4.6 9.1 -14.8 24.1 -22.2 32.7 -14 16.1 -41.9 36.2 -47.7 34.4 -1.3 -0.5 -1.9 -0.2 -1.9 1 0 1.9 -6.2 4.7 -18 8.1 -21.2 6.2 -4.8 5.7 -234.5 6.4 -192.1 0.6 -210.7 0.8 -218.5 2.3 -12.4 2.5 -28.2 7.3 -35.8 10.9 -3.7 1.7 -6.9 3.2 -7.2 3.2 -1.8 0.4 -18.8 10.4 -25.2 14.8 -13.6 9.4 -27.6 21.4 -32 27.6 -1.3 1.7 -5 6.6 -8.4 10.9 -7.1 9.2 -12.7 18 -18 28.3 -2.1 4.1 -3.9 7.7 -3.9 8 -0.1 0.3 -1.1 2.6 -2.3 5.2 -2.9 6.6 -6.8 19.1 -9.3 30.5 -2.1 9.3 -2.3 12.5 -2.6 65.6 l-0.4 55.7 -467.5 0 c-420.1 0 -467.8 0.2 -470.5 1.5 -1.6 0.9 -3.9 3 -4.9 4.8 -2 3.2 -2 0.1 -2 -426z"/>
  <path d="M1918.2 855 c-0.7 -1.1 -2.7 -2.9 -4.5 -4 -3.2 -2 -7.8 -2 -470.4 -2 l-467.3 0 0 -47.9 c0 -27.3 0.4 -51.3 1 -55.8 3.1 -23.3 10.6 -43.2 23.6 -62.9 9.5 -14.4 29.2 -33.5 45 -43.6 13 -8.3 31.3 -15.5 48.9 -19.1 9.9 -2 13.1 -2.1 220 -2.7 187.3 -0.6 210.8 -0.8 217.5 -2.2 23.7 -5.1 33.4 -8.4 49.9 -17.3 19.7 -10.4 29.2 -17.5 44.7 -32.9 21.6 -21.7 32.9 -40 42.6 -69 2.8 -8.3 5.2 -16 5.4 -17.1 0.2 -1.1 1.2 -5.6 2.1 -10 2.4 -11.5 2.3 -46.8 -0.1 -58 -0.9 -4.4 -1.8 -8.5 -2 -9.2 -0.1 -0.7 -0.5 -1.6 -0.9 -1.9 -0.4 -0.4 -0.7 -1.7 -0.7 -2.8 0 -3.5 -7.7 -25.2 -12.5 -35.1 -4.2 -8.9 -18.2 -30.8 -23.5 -36.9 -4.4 -5 -15.3 -15.3 -23.2 -21.9 -24.6 -20.3 -49.5 -31.9 -82.3 -38 -11 -2.1 -11.6 -2.1 -452.5 -2.7 l-441.5 -0.5 -10.5 -2.7 c-22.1 -5.6 -39.1 -14 -57.9 -28.6 -18 -14 -29.7 -28.4 -40.4 -49.8 -6.9 -13.5 -13.7 -35.9 -13.7 -44.7 0 -1.3 -0.2 -2.6 -0.5 -2.9 -0.3 -0.3 -0.7 -27.3 -0.8 -59.9 -0.1 -32.7 -0.5 -60.4 -0.9 -61.7 -0.9 -3 -4.4 -7.8 -7.1 -9.7 -1.9 -1.3 72.5 -1.5 706.1 -1.5 l708.2 0 0 428.5 c0 235.7 -0.1 428.5 -0.3 428.5 -0.1 0 -0.8 -0.9 -1.5 -2z"/>
 </g>
</svg>